<svg width="43" height="43" viewBox="0 0 43 43" fill="none" xmlns="http://www.w3.org/2000/svg">
<g id="material-symbols:play-circle-outline-sharp">
<path id="Vector" d="M17.021 29.5625L29.5627 21.5L17.021 13.4375V29.5625ZM21.5002 39.4167C19.0217 39.4167 16.6925 38.946 14.5127 38.0048C12.3328 37.0648 10.4366 35.7885 8.82412 34.176C7.21162 32.5635 5.93536 30.6674 4.99533 28.4875C4.05411 26.3076 3.5835 23.9785 3.5835 21.5C3.5835 19.0215 4.05411 16.6924 4.99533 14.5125C5.93536 12.3326 7.21162 10.4365 8.82412 8.82395C10.4366 7.21145 12.3328 5.93459 14.5127 4.99337C16.6925 4.05334 19.0217 3.58333 21.5002 3.58333C23.9786 3.58333 26.3078 4.05334 28.4877 4.99337C30.6675 5.93459 32.5637 7.21145 34.1762 8.82395C35.7887 10.4365 37.065 12.3326 38.005 14.5125C38.9462 16.6924 39.4168 19.0215 39.4168 21.5C39.4168 23.9785 38.9462 26.3076 38.005 28.4875C37.065 30.6674 35.7887 32.5635 34.1762 34.176C32.5637 35.7885 30.6675 37.0648 28.4877 38.0048C26.3078 38.946 23.9786 39.4167 21.5002 39.4167ZM21.5002 35.8333C25.5016 35.8333 28.8908 34.4448 31.6679 31.6677C34.445 28.8906 35.8335 25.5014 35.8335 21.5C35.8335 17.4986 34.445 14.1094 31.6679 11.3323C28.8908 8.5552 25.5016 7.16666 21.5002 7.16666C17.4988 7.16666 14.1095 8.5552 11.3325 11.3323C8.55537 14.1094 7.16683 17.4986 7.16683 21.5C7.16683 25.5014 8.55537 28.8906 11.3325 31.6677C14.1095 34.4448 17.4988 35.8333 21.5002 35.8333Z" fill="#F41919" fill-opacity="0.5"/>
</g>
</svg>
