<svg width="174" height="25" viewBox="0 0 174 25" fill="none" xmlns="http://www.w3.org/2000/svg">
<g id="Vector">
<path d="M35.5 4.78177H43.3427V5.67403C43.008 5.84622 42.6334 5.99494 42.2189 6.12017C41.8204 6.22974 41.4299 6.30801 41.0473 6.35497V19.692H45.6621L47.2641 15.489H48.2444C48.3082 15.849 48.364 16.2716 48.4118 16.7569C48.4756 17.2422 48.5234 17.7509 48.5553 18.2831C48.5872 18.8154 48.6111 19.3398 48.627 19.8564C48.6429 20.3729 48.6429 20.8269 48.627 21.2182H35.5V20.326C35.8666 20.1381 36.2094 19.9894 36.5282 19.8798C36.8629 19.7703 37.1738 19.692 37.4607 19.645V6.35497C36.6796 6.22974 36.026 6.00276 35.5 5.67403V4.78177Z" fill="white"/>
<path d="M49.1293 4.78177H56.4938V5.67403C55.9678 6.00276 55.3621 6.22974 54.6766 6.35497V15.395C54.6766 16.1621 54.7643 16.8039 54.9396 17.3204C55.115 17.837 55.37 18.2597 55.7048 18.5884C56.0395 18.9015 56.438 19.1285 56.9003 19.2693C57.3785 19.4102 57.9125 19.4807 58.5023 19.4807C59.0284 19.4807 59.5066 19.4102 59.937 19.2693C60.3833 19.1128 60.7659 18.8702 61.0847 18.5414C61.4195 18.2127 61.6745 17.7822 61.8498 17.25C62.0252 16.7178 62.1129 16.0603 62.1129 15.2776V6.47238C61.7462 6.39411 61.3637 6.28453 60.9651 6.14365C60.5826 6.00276 60.2638 5.84622 60.0087 5.67403V4.78177H65.9386V5.67403C65.6517 5.87753 65.3328 6.0419 64.9821 6.16713C64.6315 6.29236 64.2887 6.39411 63.954 6.47238V15.3011C63.954 17.3048 63.412 18.831 62.3281 19.8798C61.26 20.913 59.7457 21.4296 57.785 21.4296C55.649 21.4296 53.9991 20.9599 52.8355 20.0207C51.6718 19.0815 51.09 17.5787 51.09 15.5124V6.35497C50.7712 6.30801 50.4364 6.22974 50.0858 6.12017C49.7351 5.99494 49.4162 5.84622 49.1293 5.67403V4.78177Z" fill="white"/>
<path d="M78.9662 16.2873H79.9465C80.0103 16.5378 80.0661 16.843 80.1139 17.203C80.1777 17.5474 80.2255 17.9231 80.2574 18.3301C80.3052 18.7215 80.3371 19.1128 80.353 19.5041C80.369 19.8955 80.3769 20.2477 80.3769 20.5608C79.819 20.9052 79.1176 21.1478 78.2728 21.2887C77.4439 21.4296 76.5911 21.5 75.7143 21.5C74.3913 21.5 73.1878 21.3435 72.1038 21.0304C71.0358 20.7017 70.1192 20.1929 69.3541 19.5041C68.6049 18.7997 68.023 17.9153 67.6086 16.8508C67.1941 15.7707 66.9869 14.4793 66.9869 12.9765C66.9869 11.4894 67.2101 10.2136 67.6564 9.14917C68.1187 8.06906 68.7324 7.18462 69.4976 6.49586C70.2627 5.80709 71.1474 5.30617 72.1516 4.99309C73.1718 4.66436 74.2398 4.5 75.3557 4.5C76.4078 4.5 77.3562 4.57827 78.2011 4.73481C79.0619 4.87569 79.7632 5.07136 80.3052 5.32182C80.3052 5.57228 80.2893 5.89319 80.2574 6.28453C80.2414 6.67587 80.2016 7.0907 80.1378 7.52901C80.09 7.95166 80.0263 8.37431 79.9465 8.79696C79.8828 9.20396 79.819 9.54834 79.7553 9.83011H78.751L77.4359 6.28453C77.2925 6.20626 77.0613 6.14365 76.7425 6.09668C76.4237 6.04972 76.0969 6.02624 75.7622 6.02624C75.1086 6.02624 74.4949 6.1593 73.921 6.42541C73.3472 6.67588 72.8371 7.08287 72.3907 7.64641C71.9444 8.20994 71.5937 8.93784 71.3387 9.83011C71.0836 10.7067 70.9561 11.7634 70.9561 13C70.9561 15.2385 71.4104 16.9604 72.319 18.1657C73.2276 19.3711 74.463 19.9738 76.0252 19.9738C76.4715 19.9738 76.8461 19.9425 77.149 19.8798C77.4678 19.8016 77.683 19.6998 77.7946 19.5746L78.9662 16.2873Z" fill="white"/>
<path d="M89.8299 21.2182H82.3698V20.326C83.0074 19.9816 83.653 19.7546 84.3065 19.645V6.35497C83.9877 6.30801 83.653 6.22191 83.3023 6.09668C82.9516 5.97145 82.6407 5.83057 82.3698 5.67403V4.78177H89.8299V5.67403C89.543 5.84622 89.2242 5.99494 88.8735 6.12017C88.5387 6.22974 88.212 6.30801 87.8931 6.35497V19.645C88.212 19.7076 88.5387 19.7937 88.8735 19.9033C89.2242 20.0129 89.543 20.1538 89.8299 20.326V21.2182Z" fill="white"/>
<path d="M91.0271 21.2182V20.326C91.2981 20.1694 91.601 20.0364 91.9357 19.9268C92.2705 19.8016 92.6212 19.7076 92.9878 19.645V6.35497C92.6212 6.2767 92.2625 6.18278 91.9118 6.0732C91.5771 5.94797 91.2822 5.81492 91.0271 5.67403V4.78177H93.8008C94.0718 4.78177 94.4065 4.77394 94.805 4.75829C95.2035 4.74263 95.618 4.72698 96.0484 4.71133C96.4788 4.68002 96.8932 4.65654 97.2917 4.64088C97.7062 4.60958 98.0569 4.59392 98.3438 4.59392C99.7307 4.59392 100.966 4.77394 102.05 5.13398C103.15 5.49401 104.074 6.01842 104.824 6.70718C105.589 7.39595 106.171 8.24908 106.569 9.26657C106.984 10.2841 107.191 11.4581 107.191 12.7887C107.191 14.0879 107 15.2698 106.617 16.3343C106.234 17.3987 105.661 18.3066 104.895 19.058C104.13 19.8094 103.158 20.3964 101.978 20.8191C100.815 21.2261 99.4437 21.4296 97.8656 21.4296C97.6584 21.4296 97.3794 21.4139 97.0287 21.3826C96.678 21.3669 96.3034 21.3435 95.9049 21.3122C95.5064 21.2965 95.1079 21.273 94.7094 21.2417C94.3109 21.2261 93.9602 21.2182 93.6573 21.2182H91.0271ZM98.033 6.12017C97.7461 6.12017 97.4591 6.12799 97.1722 6.14365C96.8853 6.1593 96.6382 6.18278 96.431 6.21409V19.8094C96.4947 19.825 96.6063 19.8407 96.7657 19.8564C96.9251 19.8564 97.0845 19.8642 97.2439 19.8798C97.4193 19.8798 97.5866 19.8877 97.746 19.9033C97.9055 19.9033 98.025 19.9033 98.1047 19.9033C99.0293 19.9033 99.8103 19.7155 100.448 19.3398C101.102 18.9641 101.636 18.4553 102.05 17.8135C102.464 17.1717 102.767 16.4204 102.959 15.5594C103.15 14.6984 103.246 13.7827 103.246 12.8122C103.246 11.9512 103.142 11.1215 102.935 10.3232C102.743 9.52486 102.441 8.81261 102.026 8.18646C101.612 7.56031 101.07 7.05939 100.4 6.6837C99.7466 6.30801 98.9575 6.12017 98.033 6.12017Z" fill="white"/>
<path d="M115.078 4.78177H122.921V5.67403C122.586 5.84622 122.211 5.99494 121.797 6.12017C121.398 6.22974 121.008 6.30801 120.625 6.35497V19.692H125.24L126.842 15.489H127.822C127.886 15.849 127.942 16.2716 127.99 16.7569C128.054 17.2422 128.101 17.7509 128.133 18.2831C128.165 18.8154 128.189 19.3398 128.205 19.8564C128.221 20.3729 128.221 20.8269 128.205 21.2182H115.078V20.326C115.445 20.1381 115.787 19.9894 116.106 19.8798C116.441 19.7703 116.752 19.692 117.039 19.645V6.35497C116.258 6.22974 115.604 6.00276 115.078 5.67403V4.78177Z" fill="white"/>
<path d="M141.595 4.78177C141.563 5.48619 141.508 6.21409 141.428 6.96547C141.348 7.71685 141.245 8.42127 141.117 9.07873H140.137L139.037 6.30801H134.565V12.0608H137.483L138.535 10.2528H139.3C139.379 11.0198 139.419 11.8729 139.419 12.8122C139.419 13.7514 139.379 14.628 139.3 15.442H138.535L137.483 13.587H134.565V19.692H139.228L140.495 16.7099H141.476C141.539 17.0074 141.603 17.3439 141.667 17.7196C141.731 18.0953 141.779 18.4867 141.81 18.8936C141.858 19.285 141.89 19.6842 141.906 20.0912C141.938 20.4982 141.954 20.8739 141.954 21.2182H129.018V20.326C129.289 20.1851 129.592 20.052 129.927 19.9268C130.262 19.8016 130.612 19.7076 130.979 19.645V6.35497C130.66 6.29236 130.317 6.20626 129.951 6.09668C129.6 5.97145 129.289 5.83057 129.018 5.67403V4.78177H141.595Z" fill="white"/>
<path d="M154.687 4.78177H160.617V5.67403C160.314 5.90884 159.979 6.12016 159.612 6.30801C159.246 6.4802 158.903 6.61326 158.584 6.70718V21.5H156.552L148.111 9.52486L147.155 7.71685H147.083L147.298 9.5953V19.3867C147.617 19.465 147.968 19.5981 148.35 19.7859C148.749 19.9581 149.084 20.1381 149.355 20.326V21.2182H143.449V20.326C143.736 20.1381 144.046 19.9659 144.381 19.8094C144.732 19.6372 145.091 19.4963 145.457 19.3867V6.5663C145.138 6.44107 144.82 6.30018 144.501 6.14365C144.182 5.98711 143.895 5.82274 143.64 5.65055V4.78177H148.805L155.667 14.5497L156.767 16.5691H156.863L156.743 14.5497V6.70718C156.36 6.58195 155.986 6.43324 155.619 6.26105C155.269 6.0732 154.958 5.87753 154.687 5.67403V4.78177Z" fill="white"/>
<path d="M164.844 19.2693C165.02 19.4415 165.267 19.6059 165.586 19.7624C165.904 19.9033 166.327 19.9738 166.853 19.9738C167.73 19.9738 168.455 19.7546 169.029 19.3163C169.619 18.8623 169.913 18.2362 169.913 17.4378C169.913 16.8587 169.722 16.3734 169.34 15.982C168.973 15.5907 168.503 15.2307 167.929 14.9019C167.355 14.5732 166.741 14.2523 166.088 13.9392C165.434 13.6105 164.82 13.227 164.247 12.7887C163.673 12.3504 163.194 11.8338 162.812 11.239C162.445 10.6285 162.262 9.87707 162.262 8.98481C162.262 8.21777 162.405 7.55248 162.692 6.98895C162.979 6.42541 163.37 5.96363 163.864 5.60359C164.374 5.2279 164.972 4.95396 165.657 4.78177C166.343 4.59392 167.084 4.5 167.881 4.5C168.853 4.5 169.754 4.57044 170.583 4.71133C171.428 4.83656 172.185 5.04005 172.854 5.32182C172.838 5.6349 172.807 5.99494 172.759 6.40193C172.727 6.80893 172.679 7.21593 172.615 7.62293C172.552 8.01427 172.48 8.38996 172.4 8.75C172.336 9.09438 172.273 9.38398 172.209 9.61878H171.228L170.129 6.40193C169.937 6.30801 169.65 6.22191 169.268 6.14365C168.901 6.06538 168.519 6.02624 168.12 6.02624C167.451 6.02624 166.885 6.19843 166.422 6.54282C165.96 6.8872 165.729 7.38812 165.729 8.04558C165.729 8.64042 165.92 9.14917 166.303 9.57182C166.685 9.97882 167.164 10.3545 167.738 10.6989C168.311 11.0433 168.933 11.3877 169.603 11.732C170.288 12.0608 170.918 12.4443 171.492 12.8826C172.065 13.3209 172.544 13.8375 172.926 14.4323C173.309 15.0115 173.5 15.7316 173.5 16.5925C173.5 18.1579 172.958 19.3711 171.874 20.232C170.806 21.0774 169.228 21.5 167.14 21.5C166.63 21.5 166.112 21.4687 165.586 21.4061C165.075 21.3435 164.589 21.2574 164.127 21.1478C163.665 21.0382 163.25 20.9208 162.884 20.7956C162.533 20.6704 162.27 20.5373 162.095 20.3964C162.111 20.0364 162.15 19.6529 162.214 19.2459C162.278 18.8232 162.342 18.4084 162.405 18.0014C162.485 17.5787 162.565 17.1796 162.645 16.8039C162.724 16.4282 162.804 16.0994 162.884 15.8177H163.864L164.844 19.2693Z" fill="white"/>
<path d="M11.5 7.96875L15.875 0.46875C17.7708 0.96875 19.4533 1.88542 20.9225 3.21875C22.3908 4.55208 23.4583 6.13542 24.125 7.96875H11.5ZM8.03125 11.0938L3.75 3.59375C4.875 2.48958 6.1825 1.61458 7.6725 0.96875C9.16167 0.322917 10.7708 0 12.5 0C12.7708 0 13.0833 0.0154166 13.4375 0.0462499C13.7917 0.0779166 14.1146 0.114583 14.4062 0.15625L8.03125 11.0938ZM0.40625 15.625C0.28125 15.125 0.1825 14.6146 0.11 14.0938C0.0366667 13.5729 0 13.0417 0 12.5C0 11.0208 0.239583 9.625 0.71875 8.3125C1.19792 7 1.875 5.80208 2.75 4.71875L9.0625 15.625H0.40625ZM9.15625 24.5312C7.26042 24.0312 5.57292 23.1146 4.09375 21.7812C2.61458 20.4479 1.54167 18.8646 0.875 17.0312H13.4688L9.15625 24.5312ZM12.5 25C12.1875 25 11.87 24.9792 11.5475 24.9375C11.2242 24.8958 10.9167 24.8542 10.625 24.8125L16.9688 13.9062L21.25 21.4062C20.125 22.5104 18.8179 23.3854 17.3288 24.0312C15.8388 24.6771 14.2292 25 12.5 25ZM22.25 20.2812L15.9375 9.375H24.5938C24.7188 9.875 24.8179 10.3854 24.8913 10.9062C24.9638 11.4271 25 11.9583 25 12.5C25 13.9583 24.745 15.3542 24.235 16.6875C23.7242 18.0208 23.0625 19.2188 22.25 20.2812Z" fill="white"/>
</g>
</svg>
